<svg width="26" height="25" viewBox="0 0 26 25" fill="none" xmlns="http://www.w3.org/2000/svg">
<path d="M13 0.313012C10.5897 0.313209 8.23352 1.02813 6.22951 2.36738C4.2255 3.70662 2.66362 5.61004 1.74136 7.83694C0.819112 10.0638 0.577911 12.5142 1.04826 14.8782C1.51861 17.2422 2.67939 19.4136 4.38381 21.1179C6.08824 22.8222 8.25975 23.9828 10.6238 24.4529C12.9878 24.9231 15.4381 24.6817 17.665 23.7592C19.8918 22.8368 21.7951 21.2748 23.1342 19.2706C24.4732 17.2665 25.188 14.9103 25.188 12.5C25.184 9.26877 23.8986 6.17101 21.6138 3.88618C19.329 1.60134 16.2312 0.316981 13 0.313012ZM17.688 13.437H13.938V17.187C13.938 17.4358 13.8391 17.6744 13.6632 17.8503C13.4873 18.0262 13.2487 18.125 13 18.125C12.7512 18.125 12.5126 18.0262 12.3367 17.8503C12.1608 17.6744 12.062 17.4358 12.062 17.187V13.437H8.31197C8.06863 13.4291 7.83791 13.3268 7.66859 13.1519C7.49926 12.9769 7.40459 12.743 7.40459 12.4995C7.40459 12.256 7.49926 12.0221 7.66859 11.8472C7.83791 11.6722 8.06863 11.57 8.31197 11.562H12.062V7.81201C12.062 7.56324 12.1608 7.32465 12.3367 7.14875C12.5126 6.97284 12.7512 6.87401 13 6.87401C13.2487 6.87401 13.4873 6.97284 13.6632 7.14875C13.8391 7.32465 13.938 7.56324 13.938 7.81201V11.562H17.688C17.9367 11.562 18.1753 11.6608 18.3512 11.8367C18.5271 12.0127 18.626 12.2512 18.626 12.5C18.626 12.7488 18.5271 12.9874 18.3512 13.1633C18.1753 13.3392 17.9367 13.437 17.688 13.437Z" fill="#AD28EB"/>
</svg>
